<svg xmlns="http://www.w3.org/2000/svg" width="222" height="28" viewBox="0 0 222 28">
  <path d="M25.2,34.432 C26.4,34.432 27.612,34.3 28.836,34.036 C30.06,33.772 31.044,33.436 31.788,33.028 L31.788,33.028 L31.788,27.376 L29.484,27.376 L29.484,30.724 L28.98,31.408 C28.692,31.624 28.254,31.798 27.666,31.93 C27.078,32.062 26.352,32.128 25.488,32.128 C22.344,32.128 19.902,31.198 18.162,29.338 C16.422,27.478 15.552,24.832 15.552,21.4 C15.552,19.504 15.792,17.878 16.272,16.522 C16.752,15.166 17.406,14.056 18.234,13.192 C19.062,12.328 20.04,11.692 21.168,11.284 C22.296,10.876 23.508,10.672 24.804,10.672 C26.052,10.672 26.958,10.756 27.522,10.924 C28.086,11.092 28.5,11.236 28.764,11.356 L28.764,11.356 L29.268,12.076 L29.268,15.856 L31.572,15.856 L31.572,9.7 C31.116,9.508 30.648,9.328 30.168,9.16 C29.688,8.992 29.166,8.848 28.602,8.728 C28.038,8.608 27.408,8.518 26.712,8.458 C26.016,8.398 25.236,8.368 24.372,8.368 C22.596,8.368 20.904,8.608 19.296,9.088 C17.688,9.568 16.272,10.33 15.048,11.374 C13.824,12.418 12.852,13.762 12.132,15.406 C11.412,17.05 11.052,19.048 11.052,21.4 C11.052,23.68 11.376,25.636 12.024,27.268 C12.672,28.9 13.602,30.25 14.814,31.318 C16.026,32.386 17.508,33.172 19.26,33.676 C21.012,34.18 22.992,34.432 25.2,34.432 Z M45.824,34.36 C47.288,34.36 48.614,34.144 49.802,33.712 C50.99,33.28 51.998,32.65 52.826,31.822 C53.654,30.994 54.29,29.974 54.734,28.762 C55.178,27.55 55.4,26.152 55.4,24.568 C55.4,23.08 55.214,21.73 54.842,20.518 C54.47,19.306 53.9,18.274 53.132,17.422 C52.364,16.57 51.374,15.91 50.162,15.442 C48.95,14.974 47.504,14.74 45.824,14.74 C44.384,14.74 43.07,14.956 41.882,15.388 C40.694,15.82 39.686,16.45 38.858,17.278 C38.03,18.106 37.388,19.132 36.932,20.356 C36.476,21.58 36.248,22.984 36.248,24.568 C36.248,26.056 36.44,27.4 36.824,28.6 C37.208,29.8 37.796,30.826 38.588,31.678 C39.38,32.53 40.376,33.19 41.576,33.658 C42.776,34.126 44.192,34.36 45.824,34.36 Z M46.472,32.668 C45.344,32.668 44.39,32.458 43.61,32.038 C42.83,31.618 42.194,31.048 41.702,30.328 C41.21,29.608 40.856,28.756 40.64,27.772 C40.424,26.788 40.316,25.72 40.316,24.568 C40.316,21.736 40.784,19.672 41.72,18.376 C42.656,17.08 43.916,16.432 45.5,16.432 C46.556,16.432 47.45,16.636 48.182,17.044 C48.914,17.452 49.514,18.022 49.982,18.754 C50.45,19.486 50.792,20.35 51.008,21.346 C51.224,22.342 51.332,23.416 51.332,24.568 C51.332,27.376 50.876,29.428 49.964,30.724 C49.052,32.02 47.888,32.668 46.472,32.668 Z M68.716,34.36 C70.18,34.36 71.506,34.144 72.694,33.712 C73.882,33.28 74.89,32.65 75.718,31.822 C76.546,30.994 77.182,29.974 77.626,28.762 C78.07,27.55 78.292,26.152 78.292,24.568 C78.292,23.08 78.106,21.73 77.734,20.518 C77.362,19.306 76.792,18.274 76.024,17.422 C75.256,16.57 74.266,15.91 73.054,15.442 C71.842,14.974 70.396,14.74 68.716,14.74 C67.276,14.74 65.962,14.956 64.774,15.388 C63.586,15.82 62.578,16.45 61.75,17.278 C60.922,18.106 60.28,19.132 59.824,20.356 C59.368,21.58 59.14,22.984 59.14,24.568 C59.14,26.056 59.332,27.4 59.716,28.6 C60.1,29.8 60.688,30.826 61.48,31.678 C62.272,32.53 63.268,33.19 64.468,33.658 C65.668,34.126 67.084,34.36 68.716,34.36 Z M69.364,32.668 C68.236,32.668 67.282,32.458 66.502,32.038 C65.722,31.618 65.086,31.048 64.594,30.328 C64.102,29.608 63.748,28.756 63.532,27.772 C63.316,26.788 63.208,25.72 63.208,24.568 C63.208,21.736 63.676,19.672 64.612,18.376 C65.548,17.08 66.808,16.432 68.392,16.432 C69.448,16.432 70.342,16.636 71.074,17.044 C71.806,17.452 72.406,18.022 72.874,18.754 C73.342,19.486 73.684,20.35 73.9,21.346 C74.116,22.342 74.224,23.416 74.224,24.568 C74.224,27.376 73.768,29.428 72.856,30.724 C71.944,32.02 70.78,32.668 69.364,32.668 Z M91.14,34 L91.14,32.2 L88.476,32.2 L88.476,7 L81.636,7 L81.636,8.8 L84.696,8.8 L84.696,32.2 L82.032,32.2 L82.032,34 L91.14,34 Z M113.272,34 L113.272,31.984 L110.212,31.984 L110.211111,15.8773333 C110.209037,15.7777778 110.203333,15.5366667 110.194,15.154 C110.182,14.662 110.176,14.14 110.176,13.588 L110.176,13.588 L110.176,11.356 L110.536,11.356 L112.12,15.568 L119.32,28.6 L121.516,28.6 L128.896,15.568 L130.444,11.716 L130.768,11.716 C130.744,12.412 130.72,13.06 130.696,13.66 C130.672,14.164 130.654,14.638 130.642,15.082 C130.63,15.526 130.612,15.808 130.588,15.928 L130.588,15.928 L130.588,31.984 L127.312,31.984 L127.312,34 L137.752,34 L137.752,31.984 L134.476,31.984 L134.476,10.816 L137.752,10.816 L137.752,8.8 L130.012,8.8 L121.336,24.928 L112.84,8.8 L104.632,8.8 L104.632,10.816 L107.908,10.816 L107.908,31.984 L104.632,31.984 L104.632,34 L113.272,34 Z M150.6,34.36 C152.064,34.36 153.39,34.144 154.578,33.712 C155.766,33.28 156.774,32.65 157.602,31.822 C158.43,30.994 159.066,29.974 159.51,28.762 C159.954,27.55 160.176,26.152 160.176,24.568 C160.176,23.08 159.99,21.73 159.618,20.518 C159.246,19.306 158.676,18.274 157.908,17.422 C157.14,16.57 156.15,15.91 154.938,15.442 C153.726,14.974 152.28,14.74 150.6,14.74 C149.16,14.74 147.846,14.956 146.658,15.388 C145.47,15.82 144.462,16.45 143.634,17.278 C142.806,18.106 142.164,19.132 141.708,20.356 C141.252,21.58 141.024,22.984 141.024,24.568 C141.024,26.056 141.216,27.4 141.6,28.6 C141.984,29.8 142.572,30.826 143.364,31.678 C144.156,32.53 145.152,33.19 146.352,33.658 C147.552,34.126 148.968,34.36 150.6,34.36 Z M151.248,32.668 C150.12,32.668 149.166,32.458 148.386,32.038 C147.606,31.618 146.97,31.048 146.478,30.328 C145.986,29.608 145.632,28.756 145.416,27.772 C145.2,26.788 145.092,25.72 145.092,24.568 C145.092,21.736 145.56,19.672 146.496,18.376 C147.432,17.08 148.692,16.432 150.276,16.432 C151.332,16.432 152.226,16.636 152.958,17.044 C153.69,17.452 154.29,18.022 154.758,18.754 C155.226,19.486 155.568,20.35 155.784,21.346 C156,22.342 156.108,23.416 156.108,24.568 C156.108,27.376 155.652,29.428 154.74,30.724 C153.828,32.02 152.664,32.668 151.248,32.668 Z M174.752,34 L181.016,16.9 L183.248,16.9 L183.248,15.1 L176.336,15.1 L176.336,16.9 L178.532,16.9 L174.5,28.24 L173.492,32.164 L173.312,32.164 L172.376,28.24 L168.056,16.9 L170.468,16.9 L170.468,15.1 L161.9,15.1 L161.9,16.9 L163.952,16.9 L170.864,34 L174.752,34 Z M189.472,11.536 C190.288,11.536 190.93,11.332 191.398,10.924 C191.866,10.516 192.1,9.964 192.1,9.268 C192.1,8.572 191.866,8.02 191.398,7.612 C190.93,7.204 190.288,7 189.472,7 C188.704,7 188.074,7.204 187.582,7.612 C187.09,8.02 186.844,8.572 186.844,9.268 C186.844,9.964 187.09,10.516 187.582,10.924 C188.074,11.332 188.704,11.536 189.472,11.536 Z M194.08,34 L194.08,32.2 L191.416,32.2 L191.416,15.1 L184.972,15.1 L184.972,16.9 L187.636,16.9 L187.636,32.2 L184.972,32.2 L184.972,34 L194.08,34 Z M207.396,34.396 C208.908,34.396 210.234,34.138 211.374,33.622 C212.514,33.106 213.396,32.404 214.02,31.516 L214.02,31.516 L213.048,30.148 C212.568,30.556 211.926,30.916 211.122,31.228 C210.318,31.54 209.448,31.696 208.512,31.696 C207.36,31.696 206.364,31.522 205.524,31.174 C204.684,30.826 203.982,30.34 203.418,29.716 C202.854,29.092 202.434,28.348 202.158,27.484 C201.882,26.62 201.744,25.66 201.744,24.604 L201.744,24.604 L214.272,24.604 C214.368,24.1 214.44,23.62 214.488,23.164 C214.536,22.708 214.56,22.276 214.56,21.868 C214.56,20.524 214.338,19.396 213.894,18.484 C213.45,17.572 212.868,16.84 212.148,16.288 C211.428,15.736 210.606,15.34 209.682,15.1 C208.758,14.86 207.816,14.74 206.856,14.74 C203.952,14.74 201.696,15.574 200.088,17.242 C198.48,18.91 197.676,21.352 197.676,24.568 C197.676,26.056 197.886,27.406 198.306,28.618 C198.726,29.83 199.344,30.862 200.16,31.714 C200.976,32.566 201.99,33.226 203.202,33.694 C204.414,34.162 205.812,34.396 207.396,34.396 Z M210.528,22.912 L201.852,22.912 C201.924,21.688 202.08,20.662 202.32,19.834 C202.56,19.006 202.884,18.34 203.292,17.836 C203.7,17.332 204.186,16.972 204.75,16.756 C205.314,16.54 205.968,16.432 206.712,16.432 C208.032,16.432 209.01,16.9 209.646,17.836 C210.282,18.772 210.6,20.032 210.6,21.616 C210.6,21.808 210.594,22.018 210.582,22.246 C210.57,22.474 210.552,22.696 210.528,22.912 L210.528,22.912 Z M225.032,34.36 C226.064,34.36 227.042,34.234 227.966,33.982 C228.89,33.73 229.694,33.37 230.378,32.902 C231.062,32.434 231.602,31.864 231.998,31.192 C232.394,30.52 232.592,29.752 232.592,28.888 C232.592,27.952 232.352,27.148 231.872,26.476 C231.392,25.804 230.792,25.21 230.072,24.694 C229.352,24.178 228.572,23.716 227.732,23.308 C226.892,22.9 226.112,22.486 225.392,22.066 C224.672,21.646 224.072,21.196 223.592,20.716 C223.112,20.236 222.872,19.672 222.872,19.024 C222.872,18.352 223.154,17.794 223.718,17.35 C224.282,16.906 225.14,16.684 226.292,16.684 C226.7,16.684 227.084,16.708 227.444,16.756 C227.804,16.804 228.14,16.864 228.452,16.936 L228.452,16.936 L229.136,17.728 L229.136,20.572 L231.44,20.572 L231.44,15.712 C231.008,15.568 230.588,15.436 230.18,15.316 C229.772,15.196 229.34,15.094 228.884,15.01 C228.428,14.926 227.924,14.86 227.372,14.812 C226.82,14.764 226.184,14.74 225.464,14.74 C224.6,14.74 223.784,14.854 223.016,15.082 C222.248,15.31 221.582,15.628 221.018,16.036 C220.454,16.444 220.004,16.93 219.668,17.494 C219.332,18.058 219.164,18.688 219.164,19.384 C219.164,20.416 219.404,21.298 219.884,22.03 C220.364,22.762 220.964,23.398 221.684,23.938 C222.404,24.478 223.184,24.958 224.024,25.378 C224.864,25.798 225.644,26.218 226.364,26.638 C227.084,27.058 227.684,27.514 228.164,28.006 C228.644,28.498 228.884,29.068 228.884,29.716 C228.884,30.556 228.512,31.216 227.768,31.696 C227.024,32.176 226.076,32.416 224.924,32.416 C224.228,32.416 223.664,32.344 223.232,32.2 C222.8,32.056 222.428,31.864 222.116,31.624 L222.116,31.624 L221.396,30.868 L221.396,28.132 L219.092,28.132 L219.092,32.848 C219.716,33.256 220.574,33.61 221.666,33.91 C222.758,34.21 223.88,34.36 225.032,34.36 Z" transform="translate(-11 -7)"/>
</svg>
