<svg xmlns="http://www.w3.org/2000/svg" width="274" height="25" viewBox="0 0 274 25">
  <path d="M40.609375,49 L40.609375,40.2109375 L31.8203125,40.2109375 C30.8476562,40.2109375 30.0185547,39.8681641 29.3330078,39.1826172 C28.6474609,38.4970703 28.3046875,37.6679688 28.3046875,36.6953125 C28.3046875,35.7226562 28.6474609,34.8935547 29.3330078,34.2080078 C30.0185547,33.5224609 30.8476562,33.1796875 31.8203125,33.1796875 L31.8203125,33.1796875 L40.609375,33.1796875 L40.609375,24.390625 L31.8203125,24.390625 C28.421875,24.390625 25.5214844,25.5917969 23.1191406,27.9941406 C20.7167969,30.3964844 19.515625,33.296875 19.515625,36.6953125 C19.515625,40.09375 20.7167969,42.9941406 23.1191406,45.3964844 C25.5214844,47.7988281 28.421875,49 31.8203125,49 L31.8203125,49 L40.609375,49 Z M60.4453125,49 L60.4453125,47.2421875 L69.234375,47.2421875 L69.234375,45.484375 L66.2460938,45.484375 L66.2460938,43.7265625 L68.8125,43.7265625 C70.265625,41.6875 70.9921875,39.34375 70.9921875,36.6953125 L70.9921875,36.6953125 L69.234375,36.6953125 L69.234375,34.9375 L70.8867188,34.9375 C70.5351562,32.2890625 69.3691406,29.9746094 67.3886719,27.9941406 C64.9863281,25.5917969 62.0859375,24.390625 58.6875,24.390625 C55.2890625,24.390625 52.3886719,25.5917969 49.9863281,27.9941406 C48.0058594,29.9746094 46.8398438,32.2890625 46.4882812,34.9375 L46.4882812,34.9375 L44.625,34.9375 L44.625,36.6953125 L46.3828125,36.6953125 C46.3828125,39.3320312 47.109375,41.6757812 48.5625,43.7265625 L48.5625,43.7265625 L47.3496094,43.7265625 L47.3496094,45.484375 L53.4140625,45.484375 L53.4140625,47.2421875 L49.8984375,47.2421875 L49.8984375,49 L60.4453125,49 Z M58.6875,40.2109375 C57.7148438,40.2109375 56.8857422,39.8681641 56.2001953,39.1826172 C55.5146484,38.4970703 55.171875,37.6679688 55.171875,36.6953125 C55.171875,35.7226562 55.5146484,34.8935547 56.2001953,34.2080078 C56.8857422,33.5224609 57.7148438,33.1796875 58.6875,33.1796875 C59.6601562,33.1796875 60.4892578,33.5224609 61.1748047,34.2080078 C61.8603516,34.8935547 62.203125,35.7226562 62.203125,36.6953125 C62.203125,37.6679688 61.8603516,38.4970703 61.1748047,39.1826172 C60.4892578,39.8681641 59.6601562,40.2109375 58.6875,40.2109375 Z M50.8125,40.2109375 L49.0546875,40.2109375 L49.0546875,38.453125 L50.8125,38.453125 L50.8125,40.2109375 Z M74.5078125,40.2109375 L74.5078125,38.453125 L72.75,38.453125 L72.75,40.2109375 L74.5078125,40.2109375 Z M90.828125,49 L90.828125,47.2421875 L99.6171875,47.2421875 L99.6171875,45.484375 L96.6289062,45.484375 L96.6289062,43.7265625 L99.1953125,43.7265625 C100.648438,41.6875 101.375,39.34375 101.375,36.6953125 L101.375,36.6953125 L99.6171875,36.6953125 L99.6171875,34.9375 L101.269531,34.9375 C100.917969,32.2890625 99.7519531,29.9746094 97.7714844,27.9941406 C95.3691406,25.5917969 92.46875,24.390625 89.0703125,24.390625 C85.671875,24.390625 82.7714844,25.5917969 80.3691406,27.9941406 C78.3886719,29.9746094 77.2226562,32.2890625 76.8710938,34.9375 L76.8710938,34.9375 L75.0078125,34.9375 L75.0078125,36.6953125 L76.765625,36.6953125 C76.765625,39.3320312 77.4921875,41.6757812 78.9453125,43.7265625 L78.9453125,43.7265625 L77.7324219,43.7265625 L77.7324219,45.484375 L83.796875,45.484375 L83.796875,47.2421875 L80.28125,47.2421875 L80.28125,49 L90.828125,49 Z M89.0703125,40.2109375 C88.0976562,40.2109375 87.2685547,39.8681641 86.5830078,39.1826172 C85.8974609,38.4970703 85.5546875,37.6679688 85.5546875,36.6953125 C85.5546875,35.7226562 85.8974609,34.8935547 86.5830078,34.2080078 C87.2685547,33.5224609 88.0976562,33.1796875 89.0703125,33.1796875 C90.0429688,33.1796875 90.8720703,33.5224609 91.5576172,34.2080078 C92.2431641,34.8935547 92.5859375,35.7226562 92.5859375,36.6953125 C92.5859375,37.6679688 92.2431641,38.4970703 91.5576172,39.1826172 C90.8720703,39.8681641 90.0429688,40.2109375 89.0703125,40.2109375 Z M81.1953125,40.2109375 L79.4375,40.2109375 L79.4375,38.453125 L81.1953125,38.453125 L81.1953125,40.2109375 Z M104.890625,40.2109375 L104.890625,38.453125 L103.132812,38.453125 L103.132812,40.2109375 L104.890625,40.2109375 Z M119.453125,49 L119.453125,47.2421875 L124.726562,47.2421875 L124.726562,45.484375 L121.210938,45.484375 L121.210938,43.7265625 L122.96875,43.7265625 L122.96875,41.96875 L115.9375,41.96875 L115.9375,36.6953125 L114.179688,36.6953125 L114.179688,34.9375 L115.9375,34.9375 L115.9375,24.390625 L107.148438,24.390625 L107.148438,34.9375 L105.390625,34.9375 L105.390625,36.6953125 L107.148438,36.6953125 L107.148438,43.7265625 L105.390625,43.7265625 L105.390625,45.484375 L108.90625,45.484375 L108.90625,47.2421875 L103.632812,47.2421875 L103.632812,49 L119.453125,49 Z M110.664062,40.2109375 L108.90625,40.2109375 L108.90625,38.453125 L110.664062,38.453125 L110.664062,40.2109375 Z M119.453125,40.2109375 L119.453125,38.453125 L117.695312,38.453125 L117.695312,40.2109375 L119.453125,40.2109375 Z M146.960938,49 L146.960938,36.6953125 L152.234375,43.7265625 L157.507812,36.6953125 L157.507812,49 L166.296875,49 L166.296875,24.390625 L157.507812,24.390625 L152.234375,31.421875 L146.960938,24.390625 L138.171875,24.390625 L138.171875,49 L146.960938,49 Z M186.132812,49 L186.132812,47.2421875 L194.921875,47.2421875 L194.921875,45.484375 L191.933594,45.484375 L191.933594,43.7265625 L194.5,43.7265625 C195.953125,41.6875 196.679688,39.34375 196.679688,36.6953125 L196.679688,36.6953125 L194.921875,36.6953125 L194.921875,34.9375 L196.574219,34.9375 C196.222656,32.2890625 195.056641,29.9746094 193.076172,27.9941406 C190.673828,25.5917969 187.773438,24.390625 184.375,24.390625 C180.976562,24.390625 178.076172,25.5917969 175.673828,27.9941406 C173.693359,29.9746094 172.527344,32.2890625 172.175781,34.9375 L172.175781,34.9375 L170.3125,34.9375 L170.3125,36.6953125 L172.070312,36.6953125 C172.070312,39.3320312 172.796875,41.6757812 174.25,43.7265625 L174.25,43.7265625 L173.037109,43.7265625 L173.037109,45.484375 L179.101562,45.484375 L179.101562,47.2421875 L175.585938,47.2421875 L175.585938,49 L186.132812,49 Z M184.375,40.2109375 C183.402344,40.2109375 182.573242,39.8681641 181.887695,39.1826172 C181.202148,38.4970703 180.859375,37.6679688 180.859375,36.6953125 C180.859375,35.7226562 181.202148,34.8935547 181.887695,34.2080078 C182.573242,33.5224609 183.402344,33.1796875 184.375,33.1796875 C185.347656,33.1796875 186.176758,33.5224609 186.862305,34.2080078 C187.547852,34.8935547 187.890625,35.7226562 187.890625,36.6953125 C187.890625,37.6679688 187.547852,38.4970703 186.862305,39.1826172 C186.176758,39.8681641 185.347656,40.2109375 184.375,40.2109375 Z M176.5,40.2109375 L174.742188,40.2109375 L174.742188,38.453125 L176.5,38.453125 L176.5,40.2109375 Z M200.195312,40.2109375 L200.195312,38.453125 L198.4375,38.453125 L198.4375,40.2109375 L200.195312,40.2109375 Z M213.509766,49 L213.509766,47.2421875 L218.783203,47.2421875 L218.783203,45.484375 L215.671875,45.484375 L215.671875,43.7265625 L217.851562,43.7265625 L220.119141,36.6953125 L218.783203,36.6953125 L218.783203,34.9375 L220.541016,34.9375 L224.056641,24.390625 L215.267578,24.390625 L211.751953,34.9375 L208.236328,24.390625 L199.447266,24.390625 L202.769531,34.9375 L201.205078,34.9375 L201.205078,36.6953125 L203.332031,36.6953125 L205.546875,43.7265625 L204,43.7265625 L204,45.484375 L208.236328,45.484375 L208.236328,47.2421875 L202.962891,47.2421875 L202.962891,49 L213.509766,49 Z M208.236328,40.2109375 L206.478516,40.2109375 L206.478516,38.453125 L208.236328,38.453125 L208.236328,40.2109375 Z M223.283203,40.2109375 L223.283203,38.453125 L221.525391,38.453125 L221.525391,40.2109375 L223.283203,40.2109375 Z M235.103516,49 L235.103516,47.2421875 L240.376953,47.2421875 L240.376953,45.484375 L236.861328,45.484375 L236.861328,43.7265625 L238.619141,43.7265625 L238.619141,36.6953125 L236.861328,36.6953125 L236.861328,34.9375 L238.619141,34.9375 L238.619141,24.390625 L229.830078,24.390625 L229.830078,34.9375 L228.072266,34.9375 L228.072266,36.6953125 L229.830078,36.6953125 L229.830078,43.7265625 L228.072266,43.7265625 L228.072266,45.484375 L231.587891,45.484375 L231.587891,47.2421875 L226.314453,47.2421875 L226.314453,49 L235.103516,49 Z M233.345703,40.2109375 L231.587891,40.2109375 L231.587891,38.453125 L233.345703,38.453125 L233.345703,40.2109375 Z M242.134766,40.2109375 L242.134766,38.453125 L240.376953,38.453125 L240.376953,40.2109375 L242.134766,40.2109375 Z M258.455078,49 L258.455078,47.2421875 L263.728516,47.2421875 L263.728516,45.484375 L260.212891,45.484375 L260.212891,43.7265625 L261.970703,43.7265625 L261.970703,41.96875 L253.181641,41.96875 L253.181641,40.2109375 L261.970703,40.2109375 L261.970703,36.6953125 L260.212891,36.6953125 L260.212891,34.9375 L261.970703,34.9375 L261.970703,33.1796875 L253.181641,33.1796875 L253.181641,31.421875 L261.970703,31.421875 L261.970703,24.390625 L244.392578,24.390625 L244.392578,34.9375 L242.634766,34.9375 L242.634766,36.6953125 L244.392578,36.6953125 L244.392578,43.7265625 L242.634766,43.7265625 L242.634766,45.484375 L246.150391,45.484375 L246.150391,47.2421875 L240.876953,47.2421875 L240.876953,49 L258.455078,49 Z M247.908203,40.2109375 L246.150391,40.2109375 L246.150391,38.453125 L247.908203,38.453125 L247.908203,40.2109375 Z M265.486328,40.2109375 L265.486328,38.453125 L263.728516,38.453125 L263.728516,40.2109375 L265.486328,40.2109375 Z M265.986328,49 L282.544922,48.9824219 L282.544922,47.2421875 L289.558594,47.2421875 L289.558594,45.484375 L286.429688,45.484375 L286.429688,43.7265625 L288.591797,43.7265625 C288.755859,42.9179688 288.837891,42.015625 288.837891,41.0195312 C288.837891,39.296875 288.580078,37.8554688 288.064453,36.6953125 L288.064453,36.6953125 L285.322266,36.6953125 L285.322266,34.9375 L286.886719,34.9375 C285.714844,33.765625 284.021484,33.1796875 281.806641,33.1796875 L281.806641,33.1796875 L278.291016,33.1796875 C277.119141,33.1796875 276.533203,32.8632812 276.533203,32.2304688 C276.533203,31.6914062 277.119141,31.421875 278.291016,31.421875 L278.291016,31.421875 L287.080078,31.421875 L287.080078,24.390625 L274.775391,24.390625 C270.087891,24.390625 267.744141,27.0039062 267.744141,32.2304688 C267.744141,33.2265625 267.826172,34.1289062 267.990234,34.9375 L267.990234,34.9375 L265.986328,34.9375 L265.986328,36.6953125 L268.535156,36.6953125 C268.839844,37.3867188 269.238281,37.9726562 269.730469,38.453125 L269.730469,38.453125 L273.017578,38.453125 L273.017578,40.0703125 C273.556641,40.1640625 274.142578,40.2109375 274.775391,40.2109375 L274.775391,40.2109375 L278.291016,40.2109375 C279.462891,40.2109375 280.048828,40.4804688 280.048828,41.0195312 C280.048828,41.6523438 279.462891,41.96875 278.291016,41.96875 L278.291016,41.96875 L269.501953,41.96875 L269.501953,43.7265625 L267.744141,43.7265625 L267.744141,45.484375 L271.259766,45.484375 L271.259766,47.2421875 L265.986328,47.2421875 L265.986328,49 Z M292.353516,40.2109375 L292.353516,38.453125 L290.595703,38.453125 L290.595703,40.2109375 L292.353516,40.2109375 Z" transform="translate(-19 -24)"/>
</svg>
